inDegrees=yes
name=ik_S44_A09_T02
DataType=double
version=3
OpenSimVersion=4.3-2021-08-27-4bc7ad9
endheader
time	pelvis_tilt	pelvis_list	pelvis_rotation	pelvis_tx	pelvis_ty	pelvis_tz	hip_flexion_r	hip_adduction_r	hip_rotation_r	knee_angle_r	knee_angle_r_beta	ankle_angle_r	subtalar_angle_r	mtp_angle_r	hip_flexion_l	hip_adduction_l	hip_rotation_l	knee_angle_l	knee_angle_l_beta	ankle_angle_l	subtalar_angle_l	mtp_angle_l	lumbar_extension	lumbar_bending	lumbar_rotation	arm_flex_r	arm_add_r	arm_rot_r	elbow_flex_r	pro_sup_r	wrist_flex_r	wrist_dev_r	arm_flex_l	arm_add_l	arm_rot_l	elbow_flex_l	pro_sup_l	wrist_flex_l	wrist_dev_l
13.97999999999979	-10.9670752175089	-2.896805784056121	31.93959231135275	0	0.9399999999999999	0	36.81760605237324	-10.36829788260784	-9.948535320548656	42.30052367933209	0.7382834135221711	0	0	0	36.81760605237324	-10.36829788260784	-9.948535320548656	42.30052367933209	0.7382834135221711	0	0	0	-9.438613598694037	-0.8687391743623372	1.415458590600046	76.62694981634598	-14.58012382363355	8.873579058801425	39.1307952731572	108.9999548121037	0	4.846305458023386e-37	79.6832559817948	5.02451006161681	3.690635890533248	44.89361066528601	111.8256725188244	0	4.846305458023386e-37
13.99999999999979	-10.97459900150923	-2.901070014188439	31.95320011673573	0	0.9399999999999999	0	36.81946631453505	-10.36801308870257	-9.94856097628916	42.30253613355993	0.7383185374744924	0	0	0	36.81946631453505	-10.36801308870257	-9.94856097628916	42.30253613355993	0.7383185374744924	0	0	0	-9.447811149810374	-0.8650475131808252	1.401368735104094	76.64257503010688	-14.58702903492458	8.884336606806317	39.36599045231497	109.3377017324136	0	0	79.60538189733209	4.996647210176003	3.589424509374371	44.90079050351935	111.6384658512694	0	0
14.01999999999979	-10.98405524122402	-2.911714829592812	31.91830284355107	0	0.9399999999999999	0	36.82201352890457	-10.36762312562381	-9.948596111168888	42.30528984521278	0.7383665988094853	0	0	0	36.82201352890457	-10.36762312562381	-9.948596111168888	42.30528984521278	0.7383665988094853	0	0	0	-9.460435172719059	-0.8732187527686738	1.428449452421704	76.53248166404374	-14.6094582660436	8.71030608350644	39.58081950018165	109.830385832586	0	0	79.54053072506284	4.998921172718132	3.515392711674301	44.96580213713735	111.6021297266686	0	0
14.03999999999979	-10.99321394867643	-2.934260324360408	31.89590366250544	0	0.9399999999999999	0	36.82479575128618	-10.36719240431029	-9.948634773157139	42.30826571372431	0.7384185375131179	0	0	0	36.82479575128618	-10.36719240431029	-9.948634773157139	42.30826571372431	0.7384185375131179	0	0	0	-9.479958473825704	-0.8880363859068455	1.435328731465592	76.47111026002473	-14.65266753429172	8.617271810107059	39.63532383343237	110.0081054004899	0	0	79.54821778813967	4.975790613010611	3.482216970733956	44.92460819392549	111.400352580695	0	0
14.05999999999979	-10.99547681392246	-2.947621827243204	31.87812936699858	0	0.9399999999999999	0	36.8266450456716	-10.36690753188585	-9.948660390365188	42.3102516521774	0.7384531986778663	0	0	0	36.8266450456716	-10.36690753188585	-9.948660390365188	42.3102516521774	0.7384531986778663	0	0	0	-9.488717929835978	-0.8988812750555839	1.441729534519252	76.39181487072824	-14.69115951944374	8.582766740893829	39.5889976546984	109.8963642974659	0	0	79.53231597106092	4.97946452153225	3.45288793532197	44.89763200574997	111.2244826762584	0	0
14.07999999999979	-10.99193354863482	-2.962604698009955	31.86211540623485	0	0.9399999999999999	0	36.84655755241837	-10.36338236664414	-9.948959540211673	42.33098689692326	0.7388150969698883	0	0	0	36.84655755241837	-10.36338236664414	-9.948959540211673	42.33098689692326	0.7388150969698883	0	0	0	-9.495892155518755	-0.9069494465608566	1.441625666898597	76.3400481536339	-14.6852760804185	8.601147404167969	39.49727904690635	109.5610415953323	0	0	79.54023399664538	4.957640012521275	3.475225284600065	44.87894647130371	111.1324331009433	0	0
14.09999999999979	-11.00116362591081	-2.977863319774214	31.84092941118534	0	0.9399999999999999	0	36.84875270583694	-10.36305091965042	-9.948989597662594	42.3333717251588	0.7388567200746931	0	0	0	36.84875270583694	-10.36305091965042	-9.948989597662594	42.3333717251588	0.7388567200746931	0	0	0	-9.512205877762337	-0.9129835931306371	1.436655576203303	76.34336350886088	-14.66755486765176	8.69319192282973	39.33192915487876	109.0807147802759	0	0	79.50544292201633	4.95380310104043	3.487580828050735	44.8660003574414	111.1300285025281	0	0
14.11999999999979	-11.01863167963483	-3.00005149172611	31.84342417822309	0	0.9399999999999999	0	36.85112117317069	-10.36268945118547	-9.949022266814016	42.33591608850494	0.7389011275924503	0	0	0	36.85112117317069	-10.36268945118547	-9.949022266814016	42.33591608850494	0.7389011275924503	0	0	0	-9.538662527384439	-0.9227586779027784	1.441614389838123	76.32834525432018	-14.73267229207945	8.770412188638714	39.32244049446503	108.7706123735727	0	0	79.50541899126458	4.986142945403545	3.47172654819223	44.85206949132645	111.1198043343167	0	0
14.13999999999979	-11.02223042374745	-3.000522819911338	31.86356682607146	0	0.9399999999999999	0	36.85364464325611	-10.36230414114999	-9.949057081445902	42.33862710964863	0.7389484438374989	0	0	0	36.85364464325611	-10.36230414114999	-9.949057081445902	42.33862710964863	0.7389484438374989	0	0	0	-9.542385683000258	-0.9195625959709512	1.439280262321395	76.24937132200225	-14.77186154264924	8.86124561231418	39.30413406554904	108.4162870256077	0	0	79.45036467595236	5.010695313370733	3.411993367702355	44.85449496199292	111.1420092221471	0	0
